<svg xmlns="http://www.w3.org/2000/svg" xmlns:xlink="http://www.w3.org/1999/xlink" width="500" zoomAndPan="magnify" viewBox="0 0 375 374.999991" height="500" preserveAspectRatio="xMidYMid meet" version="1.0"><defs><g/></defs><g fill="#0767af" fill-opacity="1"><g transform="translate(84.893788, 215.929241)"><g><path d="M 4.234375 -49.484375 C 6.203125 -52.554688 8.253906 -55.257812 10.390625 -57.59375 L 18.3125 -51.375 C 17.257812 -50.070312 16.273438 -48.789062 15.359375 -47.53125 C 15.359375 -47.53125 14.414062 -46.191406 12.53125 -43.515625 Z M 13.921875 -4.125 C 13.921875 -2.007812 13.972656 -0.632812 14.078125 0 L 4.71875 0 L 4.71875 -38.515625 L 13.921875 -38.515625 Z M 13.921875 -4.125 "/></g></g></g><g fill="#0767af" fill-opacity="1"><g transform="translate(98.96611, 215.929241)"><g><path d="M 15.359375 -10.65625 C 15.359375 -5.125 15.457031 -1.570312 15.65625 0 L 6.046875 0 L 6.046875 -38.515625 L 15.359375 -38.515625 L 15.359375 -35.1875 C 18.734375 -37.894531 22.1875 -39.25 25.71875 -39.25 C 29.894531 -39.25 32.929688 -37.441406 34.828125 -33.828125 C 36.710938 -35.765625 38.285156 -37.039062 39.546875 -37.65625 C 41.628906 -38.71875 43.71875 -39.25 45.8125 -39.25 C 47.914062 -39.25 49.703125 -38.890625 51.171875 -38.171875 C 52.648438 -37.460938 53.867188 -36.457031 54.828125 -35.15625 C 56.773438 -32.53125 57.75 -28.921875 57.75 -24.328125 L 57.75 -9.65625 C 57.75 -5.5 57.804688 -3.003906 57.921875 -2.171875 C 58.046875 -1.335938 58.210938 -0.796875 58.421875 -0.546875 C 58.628906 -0.304688 58.804688 -0.0859375 58.953125 0.109375 L 58.890625 0.265625 C 56.921875 0.0859375 55.46875 0 54.53125 0 L 51.78125 0 C 50.863281 0 49.742188 0.0351562 48.421875 0.109375 L 48.421875 -19.828125 C 48.421875 -25.578125 47.535156 -28.988281 45.765625 -30.0625 C 45.179688 -30.40625 44.488281 -30.578125 43.6875 -30.578125 C 42.882812 -30.578125 42.175781 -30.484375 41.5625 -30.296875 C 40.945312 -30.117188 40.367188 -29.820312 39.828125 -29.40625 C 38.921875 -28.738281 37.890625 -27.4375 36.734375 -25.5 C 36.765625 -25.300781 36.78125 -25.101562 36.78125 -24.90625 C 36.78125 -24.707031 36.78125 -21.460938 36.78125 -15.171875 C 36.78125 -8.890625 36.925781 -3.832031 37.21875 0 C 35.132812 0 33.359375 0 31.890625 0 C 30.429688 0 29.039062 0.0351562 27.71875 0.109375 L 27.71875 -19.859375 C 27.71875 -23.867188 27.476562 -26.472656 27 -27.671875 C 26.519531 -28.878906 26.007812 -29.664062 25.46875 -30.03125 C 24.925781 -30.394531 24.257812 -30.578125 23.46875 -30.578125 C 20.226562 -30.578125 17.523438 -29.019531 15.359375 -25.90625 Z M 15.359375 -10.65625 "/></g></g></g><g fill="#0767af" fill-opacity="1"><g transform="translate(157.143721, 215.929241)"><g><path d="M 30.84375 -2.28125 C 27.351562 -0.394531 24.195312 0.546875 21.375 0.546875 C 18.550781 0.546875 16.128906 0.285156 14.109375 -0.234375 C 12.097656 -0.765625 10.390625 -1.546875 8.984375 -2.578125 C 6.140625 -4.671875 4.71875 -7.691406 4.71875 -11.640625 C 4.71875 -15.179688 6.460938 -18.128906 9.953125 -20.484375 C 13.734375 -23.046875 18.867188 -24.328125 25.359375 -24.328125 L 26.828125 -24.28125 C 27.117188 -24.257812 27.445312 -24.238281 27.8125 -24.21875 C 28.1875 -24.207031 28.519531 -24.179688 28.8125 -24.140625 C 28.613281 -28.066406 26.921875 -30.363281 23.734375 -31.03125 C 22.671875 -31.25 21.546875 -31.359375 20.359375 -31.359375 C 19.171875 -31.359375 18.003906 -31.253906 16.859375 -31.046875 C 15.710938 -30.835938 14.601562 -30.5625 13.53125 -30.21875 C 11.144531 -29.457031 9.4375 -28.582031 8.40625 -27.59375 L 8.296875 -27.671875 L 7.1875 -35.8125 C 11.53125 -38.101562 16.285156 -39.25 21.453125 -39.25 C 29.453125 -39.25 34.570312 -36.359375 36.8125 -30.578125 C 37.519531 -28.742188 37.875 -26.671875 37.875 -24.359375 L 37.875 -11.015625 C 37.875 -8.171875 38.882812 -6.234375 40.90625 -5.203125 L 34.234375 0.921875 C 32.835938 0.179688 31.707031 -0.882812 30.84375 -2.28125 Z M 28.859375 -17.5 C 28.191406 -17.625 27.503906 -17.6875 26.796875 -17.6875 L 25.3125 -17.6875 C 19.882812 -17.6875 16.4375 -16.484375 14.96875 -14.078125 C 14.519531 -13.367188 14.296875 -12.617188 14.296875 -11.828125 C 14.296875 -11.046875 14.4375 -10.351562 14.71875 -9.75 C 15 -9.144531 15.472656 -8.644531 16.140625 -8.25 C 17.421875 -7.519531 19.316406 -7.15625 21.828125 -7.15625 C 24.347656 -7.15625 26.703125 -7.753906 28.890625 -8.953125 C 28.867188 -9.222656 28.859375 -9.503906 28.859375 -9.796875 Z M 28.859375 -17.5 "/></g></g></g><g fill="#0767af" fill-opacity="1"><g transform="translate(196.271684, 215.929241)"><g><path d="M 15.546875 -10.25 C 14.640625 -9.039062 14.1875 -8.085938 14.1875 -7.390625 C 14.1875 -6.691406 14.296875 -6.148438 14.515625 -5.765625 C 14.734375 -5.390625 15.210938 -5.03125 15.953125 -4.6875 C 17.578125 -3.914062 20.242188 -3.242188 23.953125 -2.671875 C 27.660156 -2.097656 30.5625 -1.378906 32.65625 -0.515625 C 34.757812 0.347656 36.460938 1.40625 37.765625 2.65625 C 40.203125 5.039062 41.421875 8.414062 41.421875 12.78125 C 41.421875 17.15625 39.882812 20.515625 36.8125 22.859375 C 33.738281 25.210938 29.179688 26.390625 23.140625 26.390625 C 17.046875 26.390625 12.132812 25.0625 8.40625 22.40625 C 4.664062 19.75 2.75 16.222656 2.65625 11.828125 C 2.507812 6.710938 4.507812 3.015625 8.65625 0.734375 C 7.53125 -0.191406 6.773438 -1.285156 6.390625 -2.546875 C 6.003906 -3.816406 5.8125 -5.265625 5.8125 -6.890625 C 5.8125 -9.617188 7.003906 -11.925781 9.390625 -13.8125 C 6.617188 -16.445312 5.234375 -19.71875 5.234375 -23.625 C 5.234375 -28 6.804688 -31.660156 9.953125 -34.609375 C 13.265625 -37.703125 17.5625 -39.25 22.84375 -39.25 C 25.625 -39.25 28.226562 -38.734375 30.65625 -37.703125 C 33.851562 -39.046875 36.195312 -40.226562 37.6875 -41.25 C 39.1875 -42.269531 40.144531 -43.015625 40.5625 -43.484375 L 40.796875 -43.453125 C 41.015625 -42.859375 41.269531 -42.019531 41.5625 -40.9375 L 42.234375 -38.28125 C 42.816406 -36.09375 43.171875 -34.597656 43.296875 -33.796875 C 42.210938 -32.609375 40.304688 -31.769531 37.578125 -31.28125 C 38.640625 -29.25 39.171875 -27.085938 39.171875 -24.796875 C 39.171875 -22.515625 38.773438 -20.445312 37.984375 -18.59375 C 37.203125 -16.738281 36.085938 -15.109375 34.640625 -13.703125 C 31.421875 -10.679688 27.316406 -9.171875 22.328125 -9.171875 C 19.898438 -9.171875 17.640625 -9.53125 15.546875 -10.25 Z M 14.59375 -26.828125 C 14.25 -25.941406 14.078125 -25.039062 14.078125 -24.125 C 14.078125 -23.21875 14.265625 -22.347656 14.640625 -21.515625 C 15.023438 -20.679688 15.585938 -19.929688 16.328125 -19.265625 C 17.972656 -17.796875 20.117188 -17.0625 22.765625 -17.0625 C 24.785156 -17.0625 26.53125 -17.738281 28 -19.09375 C 29.550781 -20.5625 30.328125 -22.332031 30.328125 -24.40625 C 30.328125 -26.488281 29.625 -28.164062 28.21875 -29.4375 C 26.820312 -30.71875 24.894531 -31.359375 22.4375 -31.359375 C 18.382812 -31.359375 15.769531 -29.847656 14.59375 -26.828125 Z M 23.625 18.578125 C 29.664062 18.578125 32.6875 16.460938 32.6875 12.234375 C 32.6875 10.222656 31.703125 8.601562 29.734375 7.375 C 27.523438 5.96875 23.726562 4.875 18.34375 4.09375 L 16.4375 3.765625 C 14.8125 4.617188 13.617188 5.722656 12.859375 7.078125 C 12.097656 8.429688 11.722656 9.710938 11.734375 10.921875 C 11.742188 12.140625 12.03125 13.191406 12.59375 14.078125 C 13.164062 14.960938 13.953125 15.734375 14.953125 16.390625 C 17.191406 17.847656 20.082031 18.578125 23.625 18.578125 Z M 23.625 18.578125 "/></g></g></g><g fill="#0767af" fill-opacity="1"><g transform="translate(235.399646, 215.929241)"><g><path d="M 4.234375 -49.484375 C 6.203125 -52.554688 8.253906 -55.257812 10.390625 -57.59375 L 18.3125 -51.375 C 17.257812 -50.070312 16.273438 -48.789062 15.359375 -47.53125 C 15.359375 -47.53125 14.414062 -46.191406 12.53125 -43.515625 Z M 13.921875 -4.125 C 13.921875 -2.007812 13.972656 -0.632812 14.078125 0 L 4.71875 0 L 4.71875 -38.515625 L 13.921875 -38.515625 Z M 13.921875 -4.125 "/></g></g></g><g fill="#0767af" fill-opacity="1"><g transform="translate(249.471968, 215.929241)"><g><path d="M 15.109375 -4.71875 C 15.109375 -2.550781 15.207031 -0.976562 15.40625 0 L 6.15625 0 L 6.15625 -38.515625 L 15.109375 -38.515625 L 15.109375 -35.234375 C 18.347656 -37.910156 21.8125 -39.25 25.5 -39.25 C 29.53125 -39.25 32.75 -37.878906 35.15625 -35.140625 C 37.5625 -32.398438 38.765625 -28.796875 38.765625 -24.328125 L 38.765625 -9.65625 C 38.765625 -5.5 38.828125 -3.003906 38.953125 -2.171875 C 39.078125 -1.335938 39.242188 -0.796875 39.453125 -0.546875 C 39.660156 -0.304688 39.835938 -0.0859375 39.984375 0.109375 L 39.90625 0.265625 C 37.914062 0.0859375 36.46875 0 35.5625 0 L 32.984375 0 C 32.191406 0 31.132812 0.0351562 29.8125 0.109375 L 29.8125 -19.96875 C 29.8125 -27.164062 27.625 -30.765625 23.25 -30.765625 C 20.007812 -30.765625 17.296875 -29.097656 15.109375 -25.765625 Z M 15.109375 -4.71875 "/></g></g></g><g fill="#0767af" fill-opacity="1"><g transform="translate(288.747317, 215.929241)"><g><path d="M 4.234375 -49.484375 C 6.203125 -52.554688 8.253906 -55.257812 10.390625 -57.59375 L 18.3125 -51.375 C 17.257812 -50.070312 16.273438 -48.789062 15.359375 -47.53125 C 15.359375 -47.53125 14.414062 -46.191406 12.53125 -43.515625 Z M 13.921875 -4.125 C 13.921875 -2.007812 13.972656 -0.632812 14.078125 0 L 4.71875 0 L 4.71875 -38.515625 L 13.921875 -38.515625 Z M 13.921875 -4.125 "/></g></g></g><g fill="#0767af" fill-opacity="1"><g transform="translate(302.819639, 215.929241)"><g><path d="M 23.8125 -34.265625 C 23.613281 -33.554688 23.515625 -31.765625 23.515625 -28.890625 L 23.515625 -25.640625 L 14.625 -25.640625 L 14.625 0 L 5.59375 0 L 5.59375 -25.640625 L 0.1875 -25.640625 C 0.207031 -27.265625 0.234375 -28.703125 0.265625 -29.953125 L 0.328125 -33.90625 L 0.328125 -34.265625 L 5.59375 -34.265625 L 5.59375 -36.5625 C 5.59375 -42.457031 6.972656 -47.195312 9.734375 -50.78125 C 12.609375 -54.488281 16.5625 -56.34375 21.59375 -56.34375 C 23.726562 -56.34375 25.140625 -56.195312 25.828125 -55.90625 L 25.875 -46.65625 L 25.796875 -46.46875 C 24.859375 -47.40625 23.671875 -47.875 22.234375 -47.875 C 20.796875 -47.875 19.632812 -47.632812 18.75 -47.15625 C 17.875 -46.675781 17.128906 -45.992188 16.515625 -45.109375 C 15.253906 -43.335938 14.625 -40.914062 14.625 -37.84375 L 14.625 -34.265625 Z M 23.8125 -34.265625 "/></g></g></g><g fill="#0767af" fill-opacity="1"><g transform="translate(323.192698, 215.929241)"><g><path d="M 1.875 12.828125 L 4.3125 10.875 C 7.96875 7.894531 11 3.507812 13.40625 -2.28125 L 15.109375 -6.375 L 1 -38.515625 L 11.3125 -38.515625 L 20.15625 -16.25 L 28.375 -38.515625 L 38.984375 -38.515625 C 37.710938 -36.742188 36.15625 -33.445312 34.3125 -28.625 L 28.78125 -14.96875 C 21.382812 2.425781 15.585938 12.796875 11.390625 16.140625 Z M 1.875 12.828125 "/></g></g></g><path fill="#0767af" d="M 37.082031 224.007812 C 40.410156 225.8125 44.546875 225.121094 47.707031 220.070312 C 50.871094 225.121094 55.003906 225.8125 58.332031 224.007812 C 62.945312 221.503906 64.722656 214.933594 62.441406 208.933594 C 59.242188 200.554688 49.160156 193.230469 47.707031 191.773438 C 46.257812 193.230469 36.171875 200.554688 32.976562 208.933594 C 30.691406 214.933594 32.472656 221.503906 37.082031 224.007812 " fill-opacity="1" fill-rule="nonzero"/><path fill="#0767af" d="M 37.082031 159.539062 C 40.410156 157.730469 44.546875 158.421875 47.707031 163.476562 C 50.871094 158.421875 55.003906 157.730469 58.332031 159.539062 C 62.945312 162.042969 64.722656 168.613281 62.441406 174.609375 C 59.242188 182.992188 49.160156 190.3125 47.707031 191.773438 C 46.257812 190.3125 36.171875 182.992188 32.976562 174.609375 C 30.691406 168.613281 32.472656 162.042969 37.082031 159.539062 " fill-opacity="1" fill-rule="nonzero"/><path fill="#149aff" d="M 79.945312 202.398438 C 81.746094 199.070312 81.058594 194.9375 76.007812 191.773438 C 81.058594 188.609375 81.746094 184.476562 79.945312 181.144531 C 77.4375 176.539062 70.871094 174.753906 64.871094 177.042969 C 56.488281 180.234375 49.167969 190.320312 47.707031 191.773438 C 49.167969 193.222656 56.488281 203.308594 64.871094 206.503906 C 70.871094 208.789062 77.4375 207.007812 79.945312 202.398438 " fill-opacity="1" fill-rule="nonzero"/><path fill="#149aff" d="M 15.472656 202.398438 C 13.667969 199.070312 14.359375 194.9375 19.410156 191.773438 C 14.359375 188.609375 13.667969 184.476562 15.472656 181.144531 C 17.976562 176.539062 24.546875 174.753906 30.546875 177.042969 C 38.929688 180.234375 46.25 190.320312 47.707031 191.773438 C 46.25 193.222656 38.929688 203.308594 30.546875 206.503906 C 24.546875 208.789062 17.976562 207.007812 15.472656 202.398438 " fill-opacity="1" fill-rule="nonzero"/></svg>